# xmcd
#
# Track frame offsets: 
#        150
#        13779
#        27838
#        30726
#        42278
#        60031
#        68382
#        80655
#        94516
#        106563
#        121533
#        131127
#        143789
#        152903
#        167702
#        182911
#        200266
#        219279
#        234817
#        245467
#        252152
#        268794
#        274164
#        294461
#
# Disc length: 4009 seconds
#
# Revision: 0
# Processed by: cddbd v1.5.2PL0 Copyright (c) Steve Scherf et al.
# Submitted via: ExactAudioCopy v1.0b3
#
DISCID=3b0fa718
DTITLE=M.A. Numminen - Ur M.A. Numminens hatt (1971-2008) [CD 1)
DYEAR=2014
DGENRE=Humour
TTITLE0=Uppå källarbacken
TTITLE1=Jag har sett fröken Ellen i badet
TTITLE2=Perkele!
TTITLE3=Katten också
TTITLE4=Med min kvinna i riksdagshusets park
TTITLE5=Kekkonen-rock
TTITLE6=Amalia går med sin gummikavaljer i bastu
TTITLE7=Ser du stjärnan i det blå
TTITLE8=Kanske en dag
TTITLE9=Honungsmåne
TTITLE10=Allt om mig
TTITLE11=Far, jag kan inte få upp min kokosnöt
TTITLE12=Didi-wa-didi
TTITLE13=Itsy Bitsy Teenie Weenie Yellow Polka Dot Bikini
TTITLE14=Slå mej med din rytmenpinne
TTITLE15=Yes sir, jag är boogie
TTITLE16=Ooa hela natten
TTITLE17=Det gör ont
TTITLE18=Som en gummiboll kommer jag tillbaks till dej
TTITLE19=MANnen talar: Denna var
TTITLE20=När jag spelar på mitt dragspel
TTITLE21=MANnen talar: Nu ett mycket
TTITLE22=En hägring
TTITLE23=Dägä-dägä
EXTD=
EXTT0=
EXTT1=
EXTT2=
EXTT3=
EXTT4=
EXTT5=
EXTT6=
EXTT7=
EXTT8=
EXTT9=
EXTT10=
EXTT11=
EXTT12=
EXTT13=
EXTT14=
EXTT15=
EXTT16=
EXTT17=
EXTT18=
EXTT19=
EXTT20=
EXTT21=
EXTT22=
EXTT23=
PLAYORDER=
